<?xml version="1.0" encoding="iso-8859-1"?>
<!-- Generator: Adobe Illustrator 16.0.0, SVG Export Plug-In . SVG Version: 6.00 Build 0)  -->
<!DOCTYPE svg PUBLIC "-//W3C//DTD SVG 1.1//EN" "http://www.w3.org/Graphics/SVG/1.1/DTD/svg11.dtd">
<svg version="1.1" id="Capa_1" xmlns="http://www.w3.org/2000/svg" xmlns:xlink="http://www.w3.org/1999/xlink" x="0px" y="0px"
	 width="108.364px" height="108.364px" viewBox="0 0 108.364 108.364" style="enable-background:new 0 0 108.364 108.364;"
	 xml:space="preserve">
<g>
	<g>
		<path d="M38.637,68.95h9.785v-6.3c-3.615,0.765-6.951,2.238-9.785,4.283V68.95z"/>
		<polygon points="51.979,77.174 61.764,77.184 61.764,72.25 51.979,72.25 		"/>
		<path d="M51.979,62.141v6.809h9.785v-5.88c-2.397-0.664-4.949-1.024-7.583-1.024C53.44,62.045,52.707,62.083,51.979,62.141z"/>
		<path d="M31.44,75.499c-0.17,0.365-0.131,0.786,0.104,1.119c0.238,0.333,0.637,0.532,1.066,0.534l2.469,0.002V72.25h-1.738
			C32.618,73.273,31.973,74.355,31.44,75.499z"/>
		<polygon points="38.637,77.158 48.422,77.17 48.422,72.25 38.637,72.25 		"/>
		<path d="M65.323,64.334v4.615h7.014C70.34,67.047,67.963,65.489,65.323,64.334z"/>
		<polygon points="65.323,77.189 75.107,77.2 75.107,72.25 65.323,72.25 		"/>
		<path d="M54.182,0C24.258,0,0,24.258,0,54.182c0,29.924,24.258,54.183,54.182,54.183c29.923,0,54.182-24.259,54.182-54.183
			C108.364,24.258,84.105,0,54.182,0z M64.918,43.038l9.457-9.455c1.229-1.229,3.221-1.229,4.451,0
			c1.229,1.229,1.229,3.222-0.002,4.451l-9.455,9.455c-1.229,1.229-3.223,1.229-4.451,0S63.689,44.268,64.918,43.038z M79.03,49.864
			c0,2.254-1.826,4.08-4.078,4.08s-4.078-1.826-4.078-4.08c0-2.253,1.826-4.08,4.078-4.08S79.03,47.611,79.03,49.864z
			 M29.537,33.583c1.229-1.229,3.221-1.229,4.451,0l9.455,9.455c1.229,1.23,1.229,3.223,0,4.451s-3.223,1.229-4.451,0l-9.455-9.455
			C28.309,36.805,28.309,34.811,29.537,33.583z M37.491,49.864c0,2.254-1.828,4.08-4.08,4.08s-4.078-1.826-4.078-4.08
			c0-2.253,1.826-4.08,4.078-4.08S37.491,47.611,37.491,49.864z M79.694,79.195c-0.267,0.455-0.714,0.729-1.191,0.729h-0.002
			l-48.639-0.068c-0.482,0-0.932-0.278-1.197-0.739s-0.309-1.043-0.117-1.55C32.831,66.245,42.866,58.93,54.112,58.93
			c11.485,0,21.579,7.352,25.715,18.726C80.01,78.162,79.961,78.74,79.694,79.195z"/>
	</g>
</g>
<g>
</g>
<g>
</g>
<g>
</g>
<g>
</g>
<g>
</g>
<g>
</g>
<g>
</g>
<g>
</g>
<g>
</g>
<g>
</g>
<g>
</g>
<g>
</g>
<g>
</g>
<g>
</g>
<g>
</g>
</svg>
