<?xml version="1.0" encoding="iso-8859-1"?>
<!-- Generator: Adobe Illustrator 17.1.0, SVG Export Plug-In . SVG Version: 6.00 Build 0)  -->
<!DOCTYPE svg PUBLIC "-//W3C//DTD SVG 1.1//EN" "http://www.w3.org/Graphics/SVG/1.1/DTD/svg11.dtd">
<svg version="1.1" id="Capa_1" xmlns="http://www.w3.org/2000/svg" xmlns:xlink="http://www.w3.org/1999/xlink" x="0px" y="0px"
	 viewBox="0 0 324.192 324.192" style="enable-background:new 0 0 324.192 324.192;" xml:space="preserve">
<path d="M60.656,10.073c-1.144-4.268,1.389-8.654,5.656-9.798c4.267-1.145,8.654,1.388,9.799,5.656l7.857,29.31
	c1.144,4.268-1.389,8.654-5.656,9.798c-0.693,0.186-1.391,0.275-2.076,0.275c-3.532,0-6.765-2.356-7.723-5.931L60.656,10.073z
	 M275.702,135.576c0,6.775-0.907,13.488-2.697,19.953c-0.981,3.543-4.199,5.867-7.705,5.867c-0.707,0-1.425-0.094-2.14-0.292
	c-4.258-1.179-6.754-5.586-5.575-9.845c1.405-5.074,2.117-10.351,2.117-15.684c0-26.832-18.123-50.226-44.072-56.892
	c-1.822-0.468-3.421-1.563-4.516-3.092c-11.026-15.407-28.897-24.604-47.804-24.604c-15.423,0-29.812,5.861-40.673,16.337
	c13.274,8.575,22.078,23.501,22.078,40.445c0,26.529-21.584,48.113-48.114,48.113c-26.529,0-48.112-21.583-48.112-48.113
	c0-26.53,21.583-48.114,48.112-48.114c3.514,0,6.942,0.379,10.243,1.098c14.214-16.438,34.517-25.766,56.466-25.766
	c23.092,0,44.965,10.778,59.086,28.973C253.926,73.363,275.702,102.407,275.702,135.576z M96.602,75.655
	c-17.707,0-32.112,14.406-32.112,32.114c0,17.707,14.405,32.113,32.112,32.113c17.708,0,32.114-14.406,32.114-32.113
	C128.716,90.061,114.31,75.655,96.602,75.655z M255.052,176.908c1.519,1.858,2.123,4.301,1.646,6.654l-27.237,134.22
	c-0.756,3.729-4.035,6.409-7.84,6.409H104.994c-3.805,0-7.084-2.68-7.84-6.409l-27.235-134.22c-0.478-2.353,0.127-4.795,1.646-6.654
	c1.519-1.858,3.793-2.937,6.193-2.937h171.099C251.258,173.971,253.532,175.049,255.052,176.908z M239.071,189.971h-25.377
	l-7.781,38.353c-0.879,4.33-5.099,7.128-9.431,6.25c-4.33-0.878-7.128-5.101-6.249-9.431l7.135-35.171H87.545l23.989,118.22H215.08
	L239.071,189.971z"/>
<g>
</g>
<g>
</g>
<g>
</g>
<g>
</g>
<g>
</g>
<g>
</g>
<g>
</g>
<g>
</g>
<g>
</g>
<g>
</g>
<g>
</g>
<g>
</g>
<g>
</g>
<g>
</g>
<g>
</g>
</svg>
