<?xml version="1.0" encoding="iso-8859-1"?>
<!-- Generator: Adobe Illustrator 18.0.0, SVG Export Plug-In . SVG Version: 6.00 Build 0)  -->
<!DOCTYPE svg PUBLIC "-//W3C//DTD SVG 1.1//EN" "http://www.w3.org/Graphics/SVG/1.1/DTD/svg11.dtd">
<svg version="1.1" id="Capa_1" xmlns="http://www.w3.org/2000/svg" xmlns:xlink="http://www.w3.org/1999/xlink" x="0px" y="0px"
	 viewBox="0 0 410 410" style="enable-background:new 0 0 410 410;" xml:space="preserve">
<g>
	<g>
		<g>
			<path style="fill:#231F20;" d="M205,410c-12.666,0-23.179-7.311-32.454-13.762c-5.852-4.069-11.379-7.913-16.313-9.232
				c-2.229-0.596-4.953-0.886-8.327-0.886c-3.531,0-7.284,0.305-11.258,0.628c-4.17,0.339-8.48,0.689-12.771,0.689
				c-5.565,0-13.839-0.506-21.403-4.881c-10.72-6.202-16.122-17.672-20.889-27.792c-3.1-6.582-6.028-12.798-9.79-16.561
				c-3.762-3.761-9.977-6.689-16.559-9.789c-10.12-4.767-21.59-10.169-27.791-20.888c-6.112-10.564-5.093-23.108-4.193-34.176
				c0.597-7.342,1.16-14.278-0.258-19.581c-1.318-4.934-5.162-10.461-9.231-16.313C7.312,228.181,0,217.667,0,205
				c0-12.667,7.312-23.181,13.763-32.456c4.069-5.852,7.913-11.379,9.231-16.313c1.418-5.303,0.854-12.238,0.258-19.581
				c-0.899-11.068-1.919-23.613,4.194-34.177c6.2-10.717,17.67-16.12,27.79-20.887c6.581-3.1,12.798-6.028,16.56-9.79
				c3.762-3.762,6.689-9.978,9.789-16.56c4.767-10.12,10.169-21.59,20.888-27.792c7.565-4.376,15.839-4.882,21.403-4.882
				c4.292,0,8.604,0.351,12.774,0.689c3.974,0.323,7.727,0.628,11.259,0.628c3.372,0,6.095-0.29,8.323-0.885
				c4.934-1.318,10.46-5.162,16.312-9.231C181.819,7.312,192.333,0,205,0c12.666,0,23.18,7.312,32.455,13.762
				c5.852,4.069,11.378,7.913,16.313,9.231c2.229,0.596,4.951,0.885,8.324,0.885c3.531,0,7.285-0.305,11.258-0.628
				c4.171-0.339,8.482-0.689,12.774-0.689c5.565,0,13.838,0.506,21.402,4.881c10.72,6.203,16.122,17.673,20.889,27.793
				c3.1,6.582,6.028,12.798,9.79,16.561c3.762,3.761,9.977,6.689,16.56,9.789c10.119,4.767,21.589,10.169,27.79,20.887
				c6.112,10.565,5.093,23.109,4.193,34.177c-0.597,7.342-1.16,14.277,0.258,19.581c1.318,4.935,5.162,10.461,9.231,16.313
				C402.689,181.819,410,192.333,410,205c0,12.667-7.311,23.181-13.763,32.456c-4.069,5.852-7.913,11.379-9.231,16.313
				c-1.418,5.303-0.854,12.239-0.258,19.581c0.899,11.067,1.919,23.611-4.192,34.176c-6.202,10.718-17.672,16.121-27.791,20.887
				c-6.582,3.1-12.799,6.029-16.561,9.79c-3.762,3.762-6.689,9.979-9.789,16.56c-4.767,10.12-10.169,21.59-20.887,27.792
				c-7.566,4.376-15.84,4.882-21.404,4.882c-4.291,0-8.603-0.351-12.774-0.69c-3.974-0.323-7.727-0.628-11.259-0.628
				c-3.372,0-6.095,0.29-8.323,0.885c-4.934,1.318-10.46,5.162-16.311,9.231C228.181,402.688,217.667,410,205,410z M147.906,366.121
				c5.142,0,9.554,0.512,13.49,1.564c8.315,2.222,15.561,7.261,22.568,12.134C191.493,385.055,198.605,390,205,390
				c6.396,0,13.508-4.946,21.037-10.182c7.006-4.873,14.251-9.912,22.566-12.134c3.936-1.052,8.348-1.564,13.487-1.564
				c4.343,0,8.683,0.353,12.879,0.694c3.947,0.321,7.675,0.624,11.154,0.624c5.183,0,8.801-0.697,11.389-2.194
				c5.304-3.069,8.949-10.809,12.809-19.002c3.693-7.842,7.513-15.952,13.74-22.18c6.228-6.228,14.337-10.048,22.181-13.742
				c8.193-3.859,15.932-7.504,19.002-12.81c2.982-5.156,2.297-13.601,1.57-22.54c-0.709-8.713-1.441-17.723,0.869-26.366
				c2.223-8.315,7.262-15.56,12.134-22.567C385.054,218.508,390,211.396,390,205s-4.946-13.508-10.182-21.038
				c-4.873-7.006-9.912-14.251-12.135-22.567c-2.31-8.643-1.578-17.653-0.869-26.366c0.726-8.94,1.412-17.384-1.571-22.54
				c-3.069-5.305-10.808-8.95-19.001-12.81c-7.843-3.694-15.952-7.514-22.18-13.741c-6.228-6.229-10.047-14.338-13.741-22.181
				c-3.859-8.193-7.504-15.933-12.81-19.002c-2.587-1.496-6.206-2.193-11.388-2.193c-3.48,0-7.208,0.303-11.154,0.624
				c-4.196,0.341-8.535,0.694-12.878,0.694c-5.141,0-9.552-0.511-13.488-1.563c-8.315-2.223-15.561-7.261-22.568-12.134
				C218.507,24.946,211.395,20,205,20c-6.396,0-13.508,4.946-21.037,10.182c-7.006,4.873-14.251,9.912-22.566,12.134
				c-3.936,1.052-8.348,1.563-13.487,1.563c-4.344,0-8.683-0.353-12.879-0.694c-3.946-0.321-7.674-0.624-11.154-0.624
				c-5.182,0-8.801,0.697-11.389,2.194c-5.305,3.069-8.949,10.809-12.809,19.002c-3.693,7.842-7.514,15.952-13.74,22.179
				c-6.228,6.228-14.337,10.048-22.18,13.742c-8.193,3.859-15.933,7.505-19.001,12.81c-2.984,5.157-2.298,13.601-1.571,22.542
				c0.708,8.713,1.439,17.723-0.87,26.366c-2.223,8.315-7.262,15.56-12.134,22.567C24.946,191.492,20,198.604,20,205
				s4.946,13.509,10.183,21.038c4.872,7.006,9.911,14.251,12.134,22.566c2.31,8.643,1.578,17.653,0.869,26.366
				c-0.727,8.94-1.412,17.384,1.57,22.54c3.07,5.306,10.809,8.951,19.003,12.81c7.842,3.694,15.951,7.514,22.179,13.741
				c6.228,6.229,10.047,14.338,13.741,22.181c3.858,8.193,7.504,15.933,12.81,19.002c2.587,1.497,6.206,2.193,11.389,2.193
				c3.479,0,7.206-0.303,11.151-0.623C139.225,366.474,143.564,366.121,147.906,366.121z"/>
		</g>
	</g>
	<g>
		<g>
			<path style="fill:#231F20;" d="M141.1,144.697c17.098,0.001,35.018,4.599,48.376,13.773c21.375,14.679,10.46,39.647-11.139,46.56
				c7.05,4.804,10.701,12.821,11.373,21.164c3.458-11.216,9.926-22.333,19.57-29.286c4.827-3.48,10.482-5.935,16.513-5.935
				c4.053,0,5.142,4.336,7.784,4.678c4.806,0.599,9.768-0.557,11.563,5.324c1.523,5.106-0.099,11.218-1.1,16.27
				c-1.304,6.573-4.044,14.041-3.158,20.757c14.725-6.024,13.894-24.079,17.628-37.009c1.42-4.913,3.301-9.573,9.073-9.968
				c0.43-0.03,0.846-0.044,1.248-0.044c5.479,0,8.36,2.753,8.411,8.653c3.405-4.902,9.627-7.996,14.852-7.996
				c5.608,0,10.067,3.565,8.661,12.285c-0.198,1.19-4.061,16.578-1.273,16.578c0.648,0.263,1.285,0.379,1.914,0.379
				c4.483,0,8.532-5.874,13.08-5.874c0.882,0,1.782,0.221,2.708,0.748c0.002,0.001,0.003,0.002,0.005,0.003
				c4.055,2.313,2.823,7.453,2.579,11.249c-0.291,4.544-1.646,6.486-5.557,8.97c-5.179,3.294-10.992,5.271-16.378,5.271
				c-7.379,0-13.952-3.713-16.973-12.837c-2.362,6.585-4.725,13.171-7.088,19.756c-1.579,4.4-3.575,10.087-8.792,11.138
				c-0.725,0.146-1.433,0.216-2.121,0.216c-4.151,0-7.581-2.544-9.515-6.314c-4.586,3.759-10.151,6.304-15.396,6.304
				c-4.82,0-9.371-2.15-12.64-7.485c-5.332,4.42-11.984,6.786-18.204,6.786c-9.746,0-18.426-5.816-19.262-18.65
				c-6.318,17.946-23.844,25.143-41.398,25.143c-2.406,0-4.813-0.135-7.191-0.396c-9.528-1.033-22.386-2.36-30.753-7.432
				c-6.464-3.879-2.854-21.129-2.548-27.407c0.538-11.248,1.739-22.635,4.446-33.584c2.121-8.575,5.794-22.107,14.225-26.44
				c1.767-0.908,4.327-1.436,6.96-1.435c5.796,0,11.942,2.556,10.738,9.237c-0.862,4.785-5.11,9.899-6.721,14.653
				c-1.229,3.624-1.976,7.372-2.551,11.148c-1.55,10.136-2.246,20.418-2.492,30.665c-0.083,2.937-0.464,6.158,0.009,9.086
				c0.386,2.052,10.52,2.754,12.229,2.845c0.655,0.035,1.314,0.053,1.974,0.053c11.1,0,22.734-4.985,23.845-17.379
				c0.939-10.484-7.295-12.381-15.752-14.652c-8.313-2.231-16.994-6.017-15.27-16.392c0.794-5.088,5.763-6.128,11.181-6.128
				c3.749,0,7.711,0.498,10.656,0.498c0.747,0,1.431-0.032,2.026-0.112c7.369-0.994,25.785-11.67,13.426-19.598
				c-8.301-5.33-19.805-6.038-29.364-6.038c-10.218,0-22.343,0.488-31.008,6.582c-6.089,4.282-8.657,18.74-17.802,18.74
				c-0.1,0-0.2-0.002-0.301-0.005c-11.454-0.392-5.013-21.693-1.967-27.059c5.658-9.966,16.334-15.396,27.151-17.909
				C127.749,145.412,134.358,144.697,141.1,144.697 M212.045,240.196c2.228,0,6.811-13.069,7.166-14.555
				c1.045-4.55,2.089-9.1,3.134-13.65c-7.188,5.178-12.531,17.498-11.325,26.28C211.22,239.63,211.581,240.196,212.045,240.196
				 M316.624,215.433c0,0,0.151,0.086,0.564,0.321c-0.001-0.001-0.002-0.001-0.003-0.002
				C316.904,215.592,316.624,215.433,316.624,215.433 M317.188,215.754c0.076,0.043,0.143,0.081,0.202,0.115
				c-0.065-0.037-0.132-0.075-0.2-0.114C317.19,215.755,317.189,215.754,317.188,215.754 M317.39,215.869
				c0.2,0.114,0.361,0.206,0.361,0.206S317.65,216.018,317.39,215.869 M141.101,124.697L141.101,124.697
				c-8.34,0-16.426,0.895-24.034,2.663c-18.386,4.272-32.224,13.787-40.019,27.516c-2.442,4.304-4.754,10.868-6.032,17.132
				c-2.158,10.579-1.26,19.503,2.67,26.525c3.16,5.648,8.018,9.708,13.876,11.76c-0.74,5.816-1.261,12.029-1.585,18.818
				c-0.028,0.566-0.208,2.158-0.352,3.438c-0.494,4.375-1.17,10.367-0.883,16.287c0.729,15.052,7.708,22.323,13.444,25.773
				c12.03,7.27,27.312,8.924,38.476,10.133l0.437,0.047c3.089,0.339,6.243,0.513,9.347,0.513c12.689,0,24.633-2.873,34.536-8.309
				c1.976-1.085,3.864-2.266,5.662-3.54c5.863,3.442,12.818,5.355,20.462,5.355c5.368,0,10.71-0.944,15.797-2.749
				c4.588,2.254,9.682,3.447,15.047,3.447c4.404,0,8.892-0.814,13.283-2.372c3.634,1.55,7.571,2.382,11.628,2.382
				c2.02,0,4.063-0.205,6.071-0.61c5.325-1.073,12.867-4.198,18.56-12.992c1.174-1.813,2.12-3.649,2.895-5.369
				c2.4,0.46,4.89,0.697,7.447,0.697c9.102,0,18.478-2.903,27.113-8.396c5.902-3.749,13.872-10.384,14.78-24.566
				c0.022-0.341,0.061-0.705,0.098-1.078c0.245-2.514,0.614-6.313-0.135-10.659c-1.314-7.628-5.573-13.934-12.02-17.827
				c-0.005-0.003-0.011-0.006-0.015-0.009l0.004-0.007l-0.26-0.148c-0.208-0.124-0.418-0.243-0.631-0.359l-0.057-0.033l-0.008-0.004
				c-0.738-0.42-2.272-1.276-4.452-1.917c-0.54-0.175-1.084-0.331-1.632-0.47c-1.081-6.96-4.18-11.696-6.403-14.307
				c-5.397-6.337-13.254-9.828-22.123-9.828c-3.704,0-7.435,0.62-11.028,1.774c-3.634-1.578-7.755-2.432-12.233-2.432
				c-0.855,0-1.736,0.031-2.619,0.091c-6.499,0.445-12.388,2.932-17.037,7.119c-2.952-1.218-5.732-1.754-8.093-2.021
				c-3.331-2.518-8.412-5.196-15.291-5.196c-1.771,0-3.546,0.113-5.318,0.338c-0.607-3.618-1.703-7.154-3.273-10.52
				c-3.438-7.366-8.957-13.694-16.404-18.808C184.803,130.999,163.044,124.698,141.101,124.697L141.101,124.697L141.101,124.697z"/>
		</g>
	</g>
</g>
<g>
</g>
<g>
</g>
<g>
</g>
<g>
</g>
<g>
</g>
<g>
</g>
<g>
</g>
<g>
</g>
<g>
</g>
<g>
</g>
<g>
</g>
<g>
</g>
<g>
</g>
<g>
</g>
<g>
</g>
</svg>
