<?xml version="1.0" encoding="iso-8859-1"?>
<!-- Generator: Adobe Illustrator 16.0.0, SVG Export Plug-In . SVG Version: 6.00 Build 0)  -->
<!DOCTYPE svg PUBLIC "-//W3C//DTD SVG 1.1//EN" "http://www.w3.org/Graphics/SVG/1.1/DTD/svg11.dtd">
<svg version="1.1" id="Capa_1" xmlns="http://www.w3.org/2000/svg" xmlns:xlink="http://www.w3.org/1999/xlink" x="0px" y="0px"
	 width="36.454px" height="36.454px" viewBox="0 0 36.454 36.454" style="enable-background:new 0 0 36.454 36.454;"
	 xml:space="preserve">
<g>
	<path d="M16.988,11.532c0.231-0.511,0.461-1.022,0.693-1.533c1.499-3.307,4.346-1.95,5.432-4.107
		c1.104-2.188,1.852-3.753,2.82-5.68c0.088-0.175,0.324-0.259,0.525-0.185c0.797,0.291,1.594,0.582,2.389,0.873
		c0.201,0.074,0.293,0.278,0.205,0.453c-0.957,1.899-1.748,3.379-2.836,5.538c-0.934,1.854,0.965,2.719,0.783,4.641H16.988z
		 M9.106,6.932c0.538,1.905-1.619,2.479-1.695,4.6h9.561c-0.033-0.144-0.066-0.287-0.102-0.43c-0.729-3.547-3.883-2.501-4.572-4.951
		c-0.646-2.284-1.053-3.872-1.618-5.882c-0.052-0.186-0.269-0.302-0.483-0.259C9.358,0.182,8.514,0.354,7.676,0.528
		C7.459,0.571,7.331,0.759,7.381,0.944C7.955,2.98,8.455,4.616,9.106,6.932z M26.186,35.303c0-0.636-0.604-1.15-1.353-1.15H11.619
		c-0.746,0-1.352,0.517-1.352,1.15c0,0.637,0.605,1.151,1.352,1.151h13.214C25.581,36.456,26.186,35.939,26.186,35.303z
		 M33.54,15.733c-0.543,0-1.01,0.276-1.225,0.671h-0.6l0.223-0.622c0.248-0.698,0.096-1.455-0.416-2.041
		c-0.508-0.586-1.314-0.932-2.17-0.932H7.099c-0.854,0-1.662,0.346-2.171,0.932c-0.51,0.586-0.664,1.343-0.416,2.041l0.224,0.622
		H4.135c-0.213-0.396-0.68-0.671-1.225-0.671c-0.746,0-1.352,0.515-1.352,1.151v1.792c0,0.635,0.605,1.151,1.352,1.151
		c0.733,0,1.328-0.499,1.35-1.12h1.298l4.521,12.662c0.347,0.969,1.396,1.632,2.586,1.632h11.127c1.188,0,2.24-0.663,2.586-1.632
		l4.52-12.662h1.297c0.021,0.622,0.615,1.12,1.35,1.12c0.746,0,1.353-0.517,1.353-1.151v-1.792
		C34.893,16.248,34.288,15.733,33.54,15.733z"/>
</g>
<g>
</g>
<g>
</g>
<g>
</g>
<g>
</g>
<g>
</g>
<g>
</g>
<g>
</g>
<g>
</g>
<g>
</g>
<g>
</g>
<g>
</g>
<g>
</g>
<g>
</g>
<g>
</g>
<g>
</g>
</svg>
