<?xml version="1.0" encoding="iso-8859-1"?>
<!-- Generator: Adobe Illustrator 17.1.0, SVG Export Plug-In . SVG Version: 6.00 Build 0)  -->
<!DOCTYPE svg PUBLIC "-//W3C//DTD SVG 1.1//EN" "http://www.w3.org/Graphics/SVG/1.1/DTD/svg11.dtd">
<svg version="1.1" id="Capa_1" xmlns="http://www.w3.org/2000/svg" xmlns:xlink="http://www.w3.org/1999/xlink" x="0px" y="0px"
	 viewBox="0 0 275.988 275.988" style="enable-background:new 0 0 275.988 275.988;" xml:space="preserve">
<path d="M201.534,171.784c0-4.418,3.582-8,8-8s8,3.582,8,8c0,34.275-27.885,62.161-62.16,62.161c-4.418,0-8-3.582-8-8s3.582-8,8-8
	C180.827,217.945,201.534,197.237,201.534,171.784z M262.171,8v0.002v72.067c0,4.418-3.582,8-8,8s-8-3.582-8-8V16.002h-36.319
	v68.327c30.399,18.829,49.09,52.154,49.09,88.09c0,36.808-19.303,69.194-48.315,87.567h16.601c4.418,0,8,3.582,8,8s-3.582,8-8,8
	h-71.206c-0.216,0.001-0.432,0.002-0.648,0.002s-0.432-0.001-0.648-0.002h-71.21c-4.418,0-8-3.582-8-8s3.582-8,8-8h16.604
	c-29.012-18.373-48.315-50.76-48.315-87.567c0-13.694,2.714-27.009,7.756-39.287c0.157-0.515,0.366-1.017,0.629-1.498
	c8.283-19.305,22.361-35.943,40.702-47.305V72.1L58.435,16.002H21.817c-4.418,0-8-3.582-8-8s3.582-8,8-8h232.174
	c0.06-0.001,0.12-0.002,0.181-0.002C258.59,0,262.171,3.582,262.171,8z M197.956,95.89c-2.534-1.413-4.104-4.087-4.104-6.987v-72.9
	H78.501l36.77,48.583c1.052,1.39,1.621,3.085,1.621,4.828v19.489c0,2.9-1.57,5.574-4.103,6.986
	c-9.619,5.365-17.977,12.396-24.789,20.614c3.39-0.524,6.917-0.747,10.565-0.654c13.825,0.351,27.686,5.307,38.027,13.596
	c15.734,12.607,41.477,12.88,52.971,0.563c3.015-3.23,8.076-3.406,11.307-0.391c3.23,3.014,3.405,8.076,0.391,11.307
	c-19.144,20.517-54.719,16.996-74.675,1.007c-14.327-11.484-39.383-14.563-52.503-2.038c-4.083,10.189-6.278,21.206-6.278,32.527
	c0,48.089,38.959,87.248,86.973,87.567h1.191c48.014-0.319,86.973-39.479,86.973-87.567
	C242.943,140.689,225.705,111.365,197.956,95.89z"/>
<g>
</g>
<g>
</g>
<g>
</g>
<g>
</g>
<g>
</g>
<g>
</g>
<g>
</g>
<g>
</g>
<g>
</g>
<g>
</g>
<g>
</g>
<g>
</g>
<g>
</g>
<g>
</g>
<g>
</g>
</svg>
