<?xml version="1.0" encoding="iso-8859-1"?>
<!-- Generator: Adobe Illustrator 18.0.0, SVG Export Plug-In . SVG Version: 6.00 Build 0)  -->
<!DOCTYPE svg PUBLIC "-//W3C//DTD SVG 1.1//EN" "http://www.w3.org/Graphics/SVG/1.1/DTD/svg11.dtd">
<svg version="1.1" id="Capa_1" xmlns="http://www.w3.org/2000/svg" xmlns:xlink="http://www.w3.org/1999/xlink" x="0px" y="0px"
	 viewBox="0 0 494.184 494.184" style="enable-background:new 0 0 494.184 494.184;" xml:space="preserve">
<g id="coffee-cup">
	<path style="fill:#000100;" d="M105.486,462.435c1.998,18.061,17.693,31.749,36.411,31.749h210.382
		c18.713,0,34.408-13.688,36.411-31.749l37.507-338.772H67.978L105.486,462.435z M247.092,186.341
		c45.595,0,82.563,46.216,82.563,103.202c0,56.986-36.969,103.198-82.563,103.198c-45.591,0-82.56-46.211-82.56-103.198
		C164.533,232.557,201.501,186.341,247.092,186.341z"/>
	<path style="fill:#000100;" d="M433.193,30.248h-38.287V17.852C394.906,7.997,386.914,0,377.045,0H117.126
		c-9.868,0-17.856,7.997-17.856,17.852v12.396H60.978c-9.859,0-17.848,7.984-17.848,17.853v30.575
		c0,9.85,7.988,17.848,17.848,17.848h372.215c9.868,0,17.861-7.998,17.861-17.848V48.101
		C451.054,38.232,443.061,30.248,433.193,30.248z"/>
	<path style="fill:#000100;" d="M247.092,366.556c34.888,0,63.27-34.54,63.27-77.013c0-42.473-28.382-77.013-63.27-77.013
		c-34.885,0-63.267,34.539-63.267,77.013C183.826,332.016,212.208,366.556,247.092,366.556z M247.092,229.04
		c25.785,0,46.755,27.136,46.755,60.502c0,33.362-20.97,60.498-46.755,60.498c-25.781,0-46.751-27.136-46.751-60.498
		C200.341,256.176,221.311,229.04,247.092,229.04z"/>
</g>
<g>
</g>
<g>
</g>
<g>
</g>
<g>
</g>
<g>
</g>
<g>
</g>
<g>
</g>
<g>
</g>
<g>
</g>
<g>
</g>
<g>
</g>
<g>
</g>
<g>
</g>
<g>
</g>
<g>
</g>
</svg>
