<?xml version="1.0" encoding="iso-8859-1"?>
<!-- Generator: Adobe Illustrator 16.0.0, SVG Export Plug-In . SVG Version: 6.00 Build 0)  -->
<!DOCTYPE svg PUBLIC "-//W3C//DTD SVG 1.1//EN" "http://www.w3.org/Graphics/SVG/1.1/DTD/svg11.dtd">
<svg version="1.1" id="Capa_1" xmlns="http://www.w3.org/2000/svg" xmlns:xlink="http://www.w3.org/1999/xlink" x="0px" y="0px"
	 width="479.836px" height="479.836px" viewBox="0 0 479.836 479.836" style="enable-background:new 0 0 479.836 479.836;"
	 xml:space="preserve">
<g>
	<path d="M419.9,75.317c-1.2,1.4-2.4,2.8-3.5,4.2c5.8,7.3,10.5,15.3,13.899,23.7c1-1.7,2.101-3.4,3.2-5.1
		c2.601-3.9,5.8-8.1,9.5-10.8c1.2-0.9,2.601-1.6,3.9-2.3c-1,0.5,1.8-0.2,1.1-0.2c1.601-0.1,2.5,0.3,3.601,0.9
		c0.199,0.2,0.399,0.4,0.8,0.8c0.399,0.3,0.6,0.5,0.7,0.7c0,0.1,0.199,0.4,0.6,1.1c0.3,0.5,0.5,0.7,0.6,0.9
		c0,0.2,0.101,0.5,0.301,1.1c0,0.1,0.399,2.6,0.5,2.6c0.1,3.4-1.301,6.9-3.301,9.5c-4.5,5.8-11,9.1-18,11.3c2.2,8,3.4,16.3,3.4,24.8
		c14.2-4.2,26.8-10.9,35.9-23.5c10.399-14.4,8.8-36.2-5.101-47.8C452.2,54.217,432.4,61.317,419.9,75.317z"/>
	<path d="M462.4,189.817c-0.3-4.8-1.4-9.7-3.3-14.6c-2.101-5.2-4.9-9.9-8.2-14.3c-3.9-6.5-8.4-12.6-13.601-18.1
		c-0.3,7.1-1.399,14.1-3.3,20.8c1.2,1.3,2.4,2.7,3.601,4.2c4.8,8.1,8.3,16.9,10.3,26.1c-0.4,15-12,28.2-23.3,37.5
		c-0.5,0.4-1,0.8-1.5,1.2v-44.2c-4.9,7.8-11,15.1-18.2,21.7c-2.101,1.9-4.3,3.8-6.601,5.5v34.599c-8.1,5.701-15.8,11.9-22.1,19.801
		c-12.2,15.3-18,35.5-9.7,54c1.7,3.699,7,4.5,10.2,2.699c3.8-2.199,4.3-6.5,2.7-10.199c-8-17.7,6-36.5,18.8-47.5
		c0.1-0.1,0.1-0.1,0.2-0.2v150.501c0,16,24.8,16,24.8,0V250.717c8.8-6.1,17.3-12.5,24.4-20.799c0-0.1,0.1-0.1,0.1-0.2
		c-3.9,17.9-11.5,34.6-13.7,52.9c-1.899,16.2,1.601,33.1,12.601,45.5c6.399,7.2,16.899-3.4,10.5-10.5c-10-11.3-10-28-7.101-41.9
		c3.8-18.699,11.9-36,14.2-55.099C465.3,210.317,464.7,199.917,462.4,189.817z"/>
	<path d="M99.3,228.917c27.2,0,53.2-10.5,71.7-28.6c9.3-9.1,16.6-20,21.5-31.6c4.2-10,12.7-14.9,21.3-14.9c8.3,0,16.6,4.6,20.8,13.7
		c5.3,11.5,12.4,22.5,21.5,32c18.3,18.9,43.899,29.4,71.6,29.4l0,0c27.6,0,52.6-10.2,70.6-26.7c11.5-10.5,20.101-23.6,24.801-38.2
		c0.899-2.8,1.699-5.7,2.3-8.6c1.1-5.4,1.7-11,1.7-16.7c0-7.7-1.101-15.1-3-22.2c0-0.1-0.101-0.3-0.101-0.4
		c-2.8-10-7.5-19.3-13.7-27.6c-17.8-24.1-48.1-40-82.5-40c-0.699,0-1.3,0-2,0c-0.3,0-0.699,0-1,0H104.2c-0.6,0-1.3,0-1.9,0
		c-1,0-2,0-3,0c-54.9,0-99.3,40.4-99.3,90.2C-0.1,188.518,44.4,228.917,99.3,228.917z M326,106.917c19.601,0,37.101,8.9,48.8,22.9
		c-11.6,14-29.199,22.9-48.8,22.9c-19.6,0-37.1-8.9-48.8-22.9C288.9,115.817,306.4,106.917,326,106.917z M110,101.717
		c20.5,0,38.8,9.3,50.9,23.9c-12.2,14.6-30.4,23.9-50.9,23.9s-38.8-9.3-50.9-23.9C71.2,111.018,89.5,101.717,110,101.717z"/>
</g>
<g>
</g>
<g>
</g>
<g>
</g>
<g>
</g>
<g>
</g>
<g>
</g>
<g>
</g>
<g>
</g>
<g>
</g>
<g>
</g>
<g>
</g>
<g>
</g>
<g>
</g>
<g>
</g>
<g>
</g>
</svg>
