<?xml version="1.0" encoding="iso-8859-1"?>
<!-- Generator: Adobe Illustrator 18.1.1, SVG Export Plug-In . SVG Version: 6.00 Build 0)  -->
<svg version="1.1" id="Capa_1" xmlns="http://www.w3.org/2000/svg" xmlns:xlink="http://www.w3.org/1999/xlink" x="0px" y="0px"
	 viewBox="0 0 581.176 581.176" style="enable-background:new 0 0 581.176 581.176;" xml:space="preserve">
<g>
	<g>
		<circle cx="377.801" cy="116.235" r="43.588"/>
		<path d="M87.213,0v581.176h406.751V0H87.213z M290.576,552.142c-88.29,0-159.872-71.557-159.872-159.872
			c0-88.266,71.557-159.824,159.872-159.824s159.872,71.557,159.872,159.824C450.448,480.585,378.867,552.142,290.576,552.142z
			 M377.801,188.907c-40.15,0-72.647-32.546-72.647-72.647c0-40.15,32.497-72.647,72.647-72.647
			c40.053,0,72.647,32.497,72.647,72.647C450.448,156.361,417.854,188.907,377.801,188.907z"/>
		<path d="M290.576,261.554c-72.187,0-130.716,58.529-130.716,130.716s58.529,130.837,130.716,130.837
			s130.716-58.626,130.716-130.813S362.763,261.554,290.576,261.554z M290.576,493.952c-56.156,0-101.682-45.525-101.682-101.682
			s45.525-101.682,101.682-101.682s101.682,45.526,101.682,101.682S346.732,493.952,290.576,493.952z"/>
		<circle cx="290.576" cy="392.318" r="58.118"/>
	</g>
</g>
<g>
</g>
<g>
</g>
<g>
</g>
<g>
</g>
<g>
</g>
<g>
</g>
<g>
</g>
<g>
</g>
<g>
</g>
<g>
</g>
<g>
</g>
<g>
</g>
<g>
</g>
<g>
</g>
<g>
</g>
</svg>
