<?xml version="1.0" encoding="iso-8859-1"?>
<!-- Generator: Adobe Illustrator 16.0.0, SVG Export Plug-In . SVG Version: 6.00 Build 0)  -->
<!DOCTYPE svg PUBLIC "-//W3C//DTD SVG 1.1//EN" "http://www.w3.org/Graphics/SVG/1.1/DTD/svg11.dtd">
<svg version="1.1" id="Capa_1" xmlns="http://www.w3.org/2000/svg" xmlns:xlink="http://www.w3.org/1999/xlink" x="0px" y="0px"
	 width="48.057px" height="48.057px" viewBox="0 0 48.057 48.057" style="enable-background:new 0 0 48.057 48.057;"
	 xml:space="preserve">
<g>
	<g>
		<path d="M6.974,41.3H4.64c-0.974,0-1.765-0.79-1.765-1.762V14.413c0-0.971,0.791-1.762,1.765-1.762h11.012
			c0.795,0,1.438-0.645,1.438-1.438s-0.643-1.438-1.438-1.438H4.64c-2.56,0-4.64,2.08-4.64,4.639v25.125
			c0,2.559,2.08,4.639,4.64,4.639h2.334c0.795,0,1.438-0.643,1.438-1.438C8.413,41.947,7.769,41.3,6.974,41.3z"/>
		<path d="M43.417,9.774h-2.334c-0.795,0-1.438,0.645-1.438,1.438s0.646,1.438,1.438,1.438h2.334c0.974,0,1.765,0.79,1.765,1.763
			v25.125c0,0.972-0.791,1.762-1.765,1.762H33.124c-0.793,0-1.438,0.646-1.438,1.438c0,0.795,0.646,1.438,1.438,1.438h10.293
			c2.56,0,4.64-2.08,4.64-4.637V14.413C48.057,11.855,45.977,9.774,43.417,9.774z"/>
		<path d="M6.191,8.798c0.795,0,1.438-0.644,1.438-1.438V7.054c0-0.165,0.135-0.299,0.299-0.299h2.318
			c0.164,0,0.299,0.134,0.299,0.299V7.36c0,0.794,0.646,1.438,1.438,1.438s1.438-0.644,1.438-1.438V7.054
			c0-1.75-1.424-3.175-3.174-3.175H7.929c-1.752,0-3.176,1.425-3.176,3.175V7.36C4.754,8.154,5.398,8.798,6.191,8.798z"/>
		<path d="M40.03,26.977c0-7.601-6.185-13.784-13.783-13.784c-7.598,0-13.781,6.183-13.781,13.784c0,7.6,6.183,13.783,13.781,13.783
			C33.848,40.76,40.03,34.576,40.03,26.977z M26.247,37.882c-6.013,0-10.904-4.893-10.904-10.905
			c0-6.014,4.894-10.906,10.904-10.906c6.017,0,10.908,4.893,10.908,10.906S32.264,37.882,26.247,37.882z"/>
		<path d="M26.247,17.867c-5.02,0-9.107,4.086-9.107,9.109c0,5.022,4.087,9.106,9.107,9.106c5.021,0,9.108-4.086,9.108-9.106
			C35.357,21.954,31.271,17.867,26.247,17.867z M26.247,33.209c-3.435,0-6.229-2.797-6.229-6.232c0-3.437,2.795-6.231,6.229-6.231
			c3.438,0,6.231,2.796,6.231,6.231C32.48,30.412,29.686,33.209,26.247,33.209z"/>
	</g>
</g>
<g>
</g>
<g>
</g>
<g>
</g>
<g>
</g>
<g>
</g>
<g>
</g>
<g>
</g>
<g>
</g>
<g>
</g>
<g>
</g>
<g>
</g>
<g>
</g>
<g>
</g>
<g>
</g>
<g>
</g>
</svg>
