<?xml version="1.0" encoding="iso-8859-1"?>
<!-- Generator: Adobe Illustrator 16.0.0, SVG Export Plug-In . SVG Version: 6.00 Build 0)  -->
<!DOCTYPE svg PUBLIC "-//W3C//DTD SVG 1.1//EN" "http://www.w3.org/Graphics/SVG/1.1/DTD/svg11.dtd">
<svg version="1.1" id="Capa_1" xmlns="http://www.w3.org/2000/svg" xmlns:xlink="http://www.w3.org/1999/xlink" x="0px" y="0px"
	 width="457.278px" height="457.278px" viewBox="0 0 457.278 457.278" style="enable-background:new 0 0 457.278 457.278;"
	 xml:space="preserve">
<g>
	<g>
		<path d="M89.227,70.004h283.776c-0.324-11.671-8.563-21.035-18.763-21.035c0-11.235-7.879-20.344-17.601-20.344
			c-7.129,0-13.248,4.923-16.006,11.964c-5.113-0.265-10.291,0.717-15.152,3.124c-2.023-8.662-8.8-15.088-16.939-15.088
			c-7.445,0-13.77,5.355-16.361,12.892c-0.497-0.158-0.998-0.345-1.495-0.465c-2.722-4.362-6.271-8.39-10.436-12.066
			c-9.75-8.602-19.993-13.569-30.448-9.411c-2.232-4.136-5.125-7.931-8.706-11.085c-15.168-13.371-36.42-10.651-47.47,6.06
			c-2.066,3.125-3.464,6.564-4.539,10.104c-1.242-0.088-2.48-0.156-3.753-0.156c-12.271,0-23.026,3.228-29.154,13.855
			c-3.949-1.727-8.239-2.709-12.742-2.709C105.505,35.645,90.944,50.751,89.227,70.004z"/>
		<path d="M371.936,77.855H89.265H78.329l45.508,379.423h209.604L378.95,77.855H371.936z M140.463,431.134l-26.046-238.765v-82.026
			v-6.346h29.899h3.997L140.463,431.134z M245.594,431.134h-33.905V226.166V106.149v-2.158h5.559h28.346v113.493V431.134z
			 M342.863,192.369l-26.048,238.765l-6.517-271.523l-1.335-55.619h33.695h0.204V192.369z"/>
	</g>
</g>
<g>
</g>
<g>
</g>
<g>
</g>
<g>
</g>
<g>
</g>
<g>
</g>
<g>
</g>
<g>
</g>
<g>
</g>
<g>
</g>
<g>
</g>
<g>
</g>
<g>
</g>
<g>
</g>
<g>
</g>
</svg>
