<?xml version="1.0" encoding="iso-8859-1"?>
<!-- Generator: Adobe Illustrator 17.1.0, SVG Export Plug-In . SVG Version: 6.00 Build 0)  -->
<!DOCTYPE svg PUBLIC "-//W3C//DTD SVG 1.1//EN" "http://www.w3.org/Graphics/SVG/1.1/DTD/svg11.dtd">
<svg version="1.1" id="Capa_1" xmlns="http://www.w3.org/2000/svg" xmlns:xlink="http://www.w3.org/1999/xlink" x="0px" y="0px"
	 viewBox="0 0 371.676 371.676" style="enable-background:new 0 0 371.676 371.676;" xml:space="preserve">
<path d="M140.328,198.454c3.124,3.124,3.124,8.189-0.001,11.313l-7.785,7.784c-1.562,1.562-3.609,2.343-5.656,2.343
	c-2.048,0-4.095-0.781-5.657-2.344c-3.124-3.124-3.124-8.189,0.001-11.313l7.785-7.784
	C132.139,195.33,137.204,195.33,140.328,198.454z M203.658,217.552c1.562,1.562,3.608,2.342,5.655,2.342
	c2.048,0,4.096-0.781,5.658-2.345c3.123-3.125,3.122-8.19-0.003-11.313l-7.788-7.784c-3.124-3.124-8.191-3.123-11.313,0.003
	c-3.123,3.125-3.122,8.19,0.003,11.313L203.658,217.552z M201.529,145.25c2.047,0,4.094-0.781,5.656-2.343l7.785-7.783
	c3.124-3.123,3.125-8.188,0.001-11.313c-3.122-3.124-8.189-3.125-11.313-0.001l-7.785,7.783c-3.124,3.123-3.125,8.188-0.001,11.313
	C197.433,144.469,199.481,145.25,201.529,145.25z M207.373,170.68c0,4.418,3.582,8,8,8h11.012c4.418,0,8-3.582,8-8s-3.582-8-8-8
	h-11.012C210.955,162.68,207.373,166.262,207.373,170.68z M168.099,209.957c-4.418,0-8,3.582-8,8v11.007c0,4.418,3.582,8,8,8
	s8-3.582,8-8v-11.007C176.099,213.539,172.517,209.957,168.099,209.957z M143.04,170.68c0-13.816,11.241-25.058,25.059-25.058
	s25.059,11.241,25.059,25.058s-11.241,25.057-25.059,25.057S143.04,184.497,143.04,170.68z M159.04,170.68
	c0,4.994,4.063,9.057,9.059,9.057s9.059-4.063,9.059-9.057s-4.063-9.058-9.059-9.058S159.04,165.686,159.04,170.68z M310.038,8
	v325.36c0,4.418-3.582,8-8,8h-14.45c-4.418,0-8-3.582-8-8s3.582-8,8-8h6.45V16H174.182l93.595,14.408
	c3.902,0.602,6.783,3.959,6.783,7.907v325.36c0,2.334-1.02,4.552-2.791,6.072c-1.46,1.252-3.312,1.928-5.209,1.928
	c-0.404,0-0.812-0.03-1.217-0.093L68.545,341.287c-1.203-0.164-2.32-0.596-3.291-1.232c-0.541-0.354-1.034-0.772-1.472-1.242
	c-1.301-1.396-2.108-3.26-2.144-5.312c0,0,0-0.001,0-0.002c0-0.006,0-0.013,0-0.019c0-0.002,0-0.005,0-0.007
	c0-0.005,0-0.011,0-0.017c0-0.003,0-0.006-0.001-0.009c0-0.005,0-0.01,0-0.015c0-0.004,0-0.008,0-0.012s0-0.008,0-0.012
	c0-0.005,0-0.011,0-0.016c0-0.003,0-0.006,0-0.009c0-0.008,0-0.017,0-0.024V8c0-0.008,0-0.016,0-0.024V7.974
	c0-0.007,0-0.015,0-0.021c0-0.002,0-0.004,0-0.007c0-0.005,0-0.011,0-0.017c0.019-2.063,0.817-3.939,2.116-5.349
	c0.002-0.003,0.004-0.005,0.006-0.007c0.003-0.003,0.005-0.006,0.008-0.009c0.107-0.115,0.218-0.229,0.333-0.338
	c0-0.001,0-0.001,0.001-0.002c0.005-0.004,0.01-0.009,0.015-0.014c0.002-0.002,0.004-0.004,0.007-0.006
	c0.002-0.002,0.004-0.004,0.006-0.006c1.397-1.328,3.275-2.156,5.347-2.197c0.002,0,0.005,0,0.007-0.001h0.001
	C69.542,0,69.601-0.001,69.657,0h232.381C306.456,0,310.038,3.582,310.038,8z M77.638,17.327v309.172L258.56,354.35V45.178
	L77.638,17.327z M109.817,178.68h11.008c4.418,0,8-3.582,8-8s-3.582-8-8-8h-11.008c-4.418,0-8,3.582-8,8
	S105.399,178.68,109.817,178.68z M168.099,131.404c4.418,0,8-3.582,8-8v-11.008c0-4.418-3.582-8-8-8s-8,3.582-8,8v11.008
	C160.099,127.822,163.681,131.404,168.099,131.404z M129.017,142.91c1.562,1.561,3.607,2.341,5.654,2.341
	c2.049,0,4.097-0.782,5.659-2.346c3.123-3.125,3.121-8.19-0.005-11.313l-7.789-7.783c-3.124-3.122-8.189-3.121-11.313,0.005
	c-3.123,3.125-3.121,8.19,0.005,11.313L129.017,142.91z"/>
<g>
</g>
<g>
</g>
<g>
</g>
<g>
</g>
<g>
</g>
<g>
</g>
<g>
</g>
<g>
</g>
<g>
</g>
<g>
</g>
<g>
</g>
<g>
</g>
<g>
</g>
<g>
</g>
<g>
</g>
</svg>
