<?xml version="1.0" encoding="iso-8859-1"?>
<!-- Generator: Adobe Illustrator 16.0.0, SVG Export Plug-In . SVG Version: 6.00 Build 0)  -->
<!DOCTYPE svg PUBLIC "-//W3C//DTD SVG 1.1//EN" "http://www.w3.org/Graphics/SVG/1.1/DTD/svg11.dtd">
<svg version="1.1" id="Capa_1" xmlns="http://www.w3.org/2000/svg" xmlns:xlink="http://www.w3.org/1999/xlink" x="0px" y="0px"
	 width="108.364px" height="108.364px" viewBox="0 0 108.364 108.364" style="enable-background:new 0 0 108.364 108.364;"
	 xml:space="preserve">
<g>
	<g>
		<path d="M54.182,0C24.258,0,0,24.258,0,54.182c0,29.924,24.258,54.183,54.182,54.183c29.923,0,54.182-24.259,54.182-54.183
			C108.364,24.258,84.105,0,54.182,0z M62.184,22.016l10.392,0.934c1.351,0.121,2.349,1.313,2.226,2.664
			c-0.121,1.351-1.313,2.347-2.664,2.225l-10.39-0.933c-1.351-0.121-2.349-1.314-2.226-2.664
			C59.643,22.892,60.834,21.895,62.184,22.016z M70.614,44.967c-1.69,1.69-4.431,1.69-6.117,0.002c-1.688-1.687-1.688-4.426,0-6.115
			s4.429-1.689,6.117,0C72.301,40.541,72.301,43.28,70.614,44.967z M44.821,45.04c-1.688,1.688-4.426,1.688-6.117-0.002
			c-1.688-1.688-1.688-4.426,0-6.113c1.689-1.689,4.428-1.689,6.117,0C46.508,40.615,46.508,43.354,44.821,45.04z M30.786,38.819
			c-0.676-1.176-0.27-2.676,0.906-3.351l9.045-5.196c1.176-0.674,2.676-0.268,3.352,0.907c0.676,1.176,0.27,2.676-0.906,3.351
			l-9.045,5.194C32.961,40.4,31.461,39.995,30.786,38.819z M76.607,79.098c-1.521,0.66-3.286-0.041-3.944-1.562
			c-2.894-6.689-9.729-11.012-17.42-11.012c-7.869,0-14.748,4.32-17.523,11.005c-0.48,1.153-1.596,1.85-2.771,1.851
			c-0.385,0-0.773-0.074-1.15-0.23c-1.531-0.637-2.256-2.393-1.619-3.922c3.709-8.932,12.764-14.703,23.064-14.703
			c10.084,0,19.084,5.742,22.928,14.63C78.827,76.674,78.127,78.439,76.607,79.098z"/>
	</g>
</g>
<g>
</g>
<g>
</g>
<g>
</g>
<g>
</g>
<g>
</g>
<g>
</g>
<g>
</g>
<g>
</g>
<g>
</g>
<g>
</g>
<g>
</g>
<g>
</g>
<g>
</g>
<g>
</g>
<g>
</g>
</svg>
