<?xml version="1.0" encoding="iso-8859-1"?>
<!-- Generator: Adobe Illustrator 16.0.0, SVG Export Plug-In . SVG Version: 6.00 Build 0)  -->
<!DOCTYPE svg PUBLIC "-//W3C//DTD SVG 1.1//EN" "http://www.w3.org/Graphics/SVG/1.1/DTD/svg11.dtd">
<svg version="1.1" id="Capa_1" xmlns="http://www.w3.org/2000/svg" xmlns:xlink="http://www.w3.org/1999/xlink" x="0px" y="0px"
	 width="577.94px" height="577.941px" viewBox="0 0 577.94 577.941" style="enable-background:new 0 0 577.94 577.941;"
	 xml:space="preserve">
<g>
	<g id="Layer_1_148_">
		<g>
			<path d="M134.241,507.56l-2.55,20.4c-2.55,17.85,10.2,33.149,26.775,35.699c1.275,0,2.55,0,3.825,0
				c15.3,0,29.325-11.475,31.875-28.05l3.825-30.6c-11.475,2.55-24.225,5.1-36.975,5.1
				C152.091,510.11,143.167,510.11,134.241,507.56z"/>
			<path d="M546.065,163.31L546.065,163.31l-20.399-1.275c1.274,21.675-2.55,43.35-10.2,63.75h30.6
				c17.851,0,31.875-14.025,31.875-31.875S563.916,163.31,546.065,163.31z"/>
			<path d="M428.766,60.035c-3.825-3.825-7.649-7.65-12.75-10.2l10.2-8.925c6.375-5.1,6.375-15.3,1.275-21.675
				c-5.101-6.375-15.301-6.375-21.676-1.275l-145.349,127.5c-17.85,16.575-20.4,43.35-6.375,62.475l-29.325,25.5l-10.2,8.925
				c-8.925-7.65-20.4-12.75-31.875-12.75s-21.675,3.825-30.6,11.475L5.466,371.135c-6.375,6.375-7.65,15.3-1.275,21.675
				c2.55,3.825,7.65,5.1,11.475,5.1c3.825,0,7.65-1.274,10.2-3.824l10.2-8.926c2.55,5.101,3.825,8.926,7.65,12.75l30.6,34.426
				c22.95,25.5,54.825,39.524,86.7,39.524c26.775,0,54.825-8.925,76.5-29.325c44.625-39.524,51-105.824,17.85-152.999l10.2-8.926
				l28.05-25.5c21.675,19.125,49.725,29.325,77.774,29.325c26.775,0,54.825-8.925,76.5-29.325
				c47.175-42.075,52.275-114.75,10.2-163.2L428.766,60.035z M209.466,284.435l8.925,10.2l-34.425,142.8
				c-3.825,1.275-8.925,2.55-12.75,2.55L209.466,284.435z M182.691,261.485c2.55,0,3.825,0,6.375,1.275l-43.35,175.95
				c-3.825-1.275-7.65-1.275-11.475-2.551l43.35-173.399C178.866,261.485,180.141,261.485,182.691,261.485z M98.542,413.21
				l-30.6-34.426c-5.1-6.375-5.1-15.3,1.275-21.675l73.95-65.024l-33.15,132.6C106.191,420.86,102.366,417.035,98.542,413.21z
				 M217.116,419.585c-6.375,5.1-12.75,8.925-19.125,12.75l30.6-123.676C254.091,341.81,250.266,391.535,217.116,419.585z
				 M391.791,75.335h1.274c3.825,0,6.375,1.275,8.926,3.825l-43.351,174.675c-3.825,0-7.649-1.275-11.475-2.55L391.791,75.335z
				 M423.666,102.11l8.925,10.2l-34.425,137.7c-3.825,1.275-8.925,2.55-12.75,2.55L423.666,102.11z M310.19,225.785l-30.599-34.425
				c-5.1-6.375-5.1-15.3,1.275-21.675l79.05-68.85l-35.7,138.975C319.116,235.985,314.016,230.885,310.19,225.785z M428.766,233.435
				c-5.1,3.825-10.2,7.65-15.3,10.2l29.325-118.575C465.741,159.485,459.366,205.385,428.766,233.435z"/>
		</g>
	</g>
</g>
<g>
</g>
<g>
</g>
<g>
</g>
<g>
</g>
<g>
</g>
<g>
</g>
<g>
</g>
<g>
</g>
<g>
</g>
<g>
</g>
<g>
</g>
<g>
</g>
<g>
</g>
<g>
</g>
<g>
</g>
</svg>
