<?xml version="1.0" encoding="iso-8859-1"?>
<!-- Generator: Adobe Illustrator 16.0.0, SVG Export Plug-In . SVG Version: 6.00 Build 0)  -->
<!DOCTYPE svg PUBLIC "-//W3C//DTD SVG 1.1//EN" "http://www.w3.org/Graphics/SVG/1.1/DTD/svg11.dtd">
<svg version="1.1" id="Capa_1" xmlns="http://www.w3.org/2000/svg" xmlns:xlink="http://www.w3.org/1999/xlink" x="0px" y="0px"
	 width="449.985px" height="449.986px" viewBox="0 0 449.985 449.986" style="enable-background:new 0 0 449.985 449.986;"
	 xml:space="preserve">
<g>
	<path d="M224.99,162.798c9.667,0,17.518,7.838,17.518,17.512c0,9.672-7.851,17.515-17.518,17.515
		c-9.672,0-17.515-7.843-17.515-17.515C207.475,170.636,215.318,162.798,224.99,162.798z"/>
	<path d="M224.99,290.996c9.667,0,17.502,7.834,17.502,17.5c0,9.674-7.835,17.513-17.502,17.513
		c-9.668,0-17.506-7.839-17.506-17.513C207.483,298.83,215.322,290.996,224.99,290.996z"/>
	<path d="M302.512,0H147.474v417.297h17.482l-11.894,20.085v12.604h146.392v-11.914l-9.522-20.774h12.571V0H302.512z M224.99,24.331
		c7.616,0,13.784,6.171,13.784,13.784c0,7.616-6.168,13.779-13.784,13.779c-7.61,0-13.778-6.163-13.778-13.779
		C211.212,30.502,217.38,24.331,224.99,24.331z M224.99,64.031c13.154,0,23.818,10.66,23.818,23.82
		c0,13.154-10.664,23.808-23.818,23.808c-13.148,0-23.812-10.654-23.812-23.808C201.178,74.69,211.841,64.031,224.99,64.031z
		 M224.99,363.831c-30.563,0-55.336-24.771-55.336-55.335c0-30.557,24.773-55.334,55.336-55.334
		c30.567,0,55.336,24.777,55.336,55.334C280.326,339.06,255.557,363.831,224.99,363.831z M224.99,235.637
		c-30.563,0-55.336-24.772-55.336-55.335c0-30.561,24.773-55.338,55.336-55.338c30.567,0,55.336,24.778,55.336,55.338
		C280.326,210.865,255.557,235.637,224.99,235.637z"/>
</g>
<g>
</g>
<g>
</g>
<g>
</g>
<g>
</g>
<g>
</g>
<g>
</g>
<g>
</g>
<g>
</g>
<g>
</g>
<g>
</g>
<g>
</g>
<g>
</g>
<g>
</g>
<g>
</g>
<g>
</g>
</svg>
