<?xml version="1.0" encoding="iso-8859-1"?>
<!-- Generator: Adobe Illustrator 16.0.0, SVG Export Plug-In . SVG Version: 6.00 Build 0)  -->
<!DOCTYPE svg PUBLIC "-//W3C//DTD SVG 1.1//EN" "http://www.w3.org/Graphics/SVG/1.1/DTD/svg11.dtd">
<svg version="1.1" id="Capa_1" xmlns="http://www.w3.org/2000/svg" xmlns:xlink="http://www.w3.org/1999/xlink" x="0px" y="0px"
	 width="108.364px" height="108.364px" viewBox="0 0 108.364 108.364" style="enable-background:new 0 0 108.364 108.364;"
	 xml:space="preserve">
<g>
	<g>
		<path d="M54.182,0C24.258,0,0,24.258,0,54.182c0,29.924,24.258,54.183,54.182,54.183c29.923,0,54.182-24.259,54.182-54.183
			C108.364,24.258,84.105,0,54.182,0z M54.2,20.556c0.541-1.596,2.271-2.452,3.869-1.911l4.116,1.394l2.248-3.72
			c0.873-1.44,2.748-1.903,4.189-1.031c1.441,0.871,1.904,2.748,1.031,4.188l-1.551,2.566l2.246,0.761
			c1.596,0.542,2.451,2.272,1.91,3.869c-0.539,1.596-2.271,2.452-3.869,1.91l-3.521-1.192l-1.924,3.181
			c-0.871,1.443-2.746,1.906-4.189,1.033c-1.441-0.871-1.904-2.747-1.031-4.189l1.228-2.028l-2.842-0.962
			C54.514,23.883,53.659,22.151,54.2,20.556z M70.614,44.967c-1.69,1.69-4.431,1.69-6.117,0.002c-1.688-1.687-1.688-4.426,0-6.115
			s4.429-1.689,6.117,0C72.301,40.541,72.301,43.28,70.614,44.967z M38.703,38.925c1.689-1.689,4.428-1.689,6.117,0
			c1.688,1.689,1.688,4.429,0,6.115c-1.688,1.688-4.426,1.688-6.117-0.002C37.016,43.351,37.016,40.613,38.703,38.925z
			 M76.607,79.098c-1.521,0.66-3.286-0.041-3.944-1.562c-2.894-6.689-9.729-11.012-17.42-11.012c-7.869,0-14.748,4.32-17.523,11.005
			c-0.48,1.153-1.596,1.85-2.771,1.851c-0.385,0-0.773-0.074-1.15-0.23c-1.531-0.637-2.256-2.393-1.619-3.922
			c3.709-8.932,12.764-14.703,23.064-14.703c10.084,0,19.084,5.742,22.928,14.63C78.827,76.674,78.127,78.439,76.607,79.098z"/>
	</g>
</g>
<g>
</g>
<g>
</g>
<g>
</g>
<g>
</g>
<g>
</g>
<g>
</g>
<g>
</g>
<g>
</g>
<g>
</g>
<g>
</g>
<g>
</g>
<g>
</g>
<g>
</g>
<g>
</g>
<g>
</g>
</svg>
